<?xml version="1.0" encoding="utf-8"?>
<!-- Generator: Adobe Illustrator 27.2.0, SVG Export Plug-In . SVG Version: 6.00 Build 0)  -->
<svg version="1.1" id="Layer_1" xmlns="http://www.w3.org/2000/svg" xmlns:xlink="http://www.w3.org/1999/xlink" x="0px" y="0px"
	 viewBox="0 0 841.6 904.9" style="enable-background:new 0 0 841.6 904.9;" xml:space="preserve">
<style type="text/css">
	.st0{fill:#295EFF;}
</style>
<path class="st0" d="M372.1,38.6h8.2c1.2-0.2,2.4,0.7,2.5,1.9c0,0.2,0,0.4,0,0.6c-19.8,39.7-32.5,63.5-38,71.5
	c-14.8,0.4-50,14.6-105.7,42.4C164,200.1,111.5,264.9,81.6,349.3c-9.5,31.4-14.5,64-14.6,96.8c0,90.7,40.1,182,120.2,274
	c-1.3,5.1-12,24.9-32.3,59.5h-1.3c-38.4-33.3-65.2-63.1-80.4-89.2C24.5,613.2,0,528.2,0,435.4c0-156.5,87.1-278,261.4-364.5
	C310.7,49.4,347.6,38.6,372.1,38.6z M668.2,0v3.8C548.9,192.4,484.3,295.3,474.6,312.6h179.7c1.2-0.2,2.4,0.7,2.5,1.9
	c0,0.2,0,0.4,0,0.6C653,317.6,475.4,514.2,124,904.9v-2.5L356.9,455H204.4l-2.5-1.3C304.8,250.8,382.2,99.6,434.1,0H668.2z
	 M632.2,103.2h3.8c137.1,83.1,205.6,193,205.6,329.7v13.3c0,81-22.4,154.6-67.1,220.8c-89.4,138.8-205,208.2-346.8,208.2
	c-67.1,0-132.9-16-197.4-48.1v-1.3c29.1-30.8,44.5-46.2,46.2-46.2c51.9,16.5,97.6,24.7,137.3,24.7h21.5
	c93.2,0,174.4-34.6,243.6-103.8c59.1-67.1,88.6-141.5,88.6-223.4v-15.8c0-108.8-52.1-208.8-156.3-300c-4.9-2.5-9.2-5.9-12.7-10.1
	C619.3,122.1,630.5,106.1,632.2,103.2z"/>
</svg>
