<svg id="Layer_1" data-name="Layer 1" xmlns="http://www.w3.org/2000/svg" viewBox="0 0 841.64 904.92"><defs><style>.cls-1{fill:#fff;}</style></defs><path class="cls-1" d="M372.09,38.61h8.24a2.23,2.23,0,0,1,2.53,2.53q-29.76,59.49-38,71.5-22.17.66-105.69,42.41Q126.57,222.76,81.64,349.31a336.5,336.5,0,0,0-14.56,96.83q0,136.05,120.23,274-1.89,7.59-32.26,59.48h-1.27q-57.61-50-80.37-89.21Q0,574.6,0,435.38,0,200.63,261.36,70.88,335.37,38.63,372.09,38.61ZM668.25,0V3.8Q489.17,286.69,474.61,312.61H654.33a2.23,2.23,0,0,1,2.53,2.53q-5.7,3.8-532.83,589.78v-2.53L356.91,455H204.41l-2.54-1.27Q356.28,149.35,434.11,0ZM632.19,103.16H636Q841.63,227.83,841.64,432.84v13.3q0,121.5-67.08,220.84Q640.4,875.21,427.78,875.19q-100.62,0-197.44-48.1v-1.26q43.66-46.2,46.21-46.21,77.81,24.71,137.31,24.69h21.52q139.85,0,243.64-103.78,88.59-100.62,88.59-223.39V461.33q0-163.27-156.31-299.95a39.32,39.32,0,0,1-12.66-10.13Q629.65,107.59,632.19,103.16Z"/></svg>