<?xml version="1.0" encoding="utf-8"?>
<!-- Generator: Adobe Illustrator 27.1.1, SVG Export Plug-In . SVG Version: 6.00 Build 0)  -->
<svg version="1.1" id="Layer_1" xmlns="http://www.w3.org/2000/svg" xmlns:xlink="http://www.w3.org/1999/xlink" x="0px" y="0px"
	 viewBox="0 0 841.6 904.9" style="enable-background:new 0 0 841.6 904.9;" xml:space="preserve">
<style type="text/css">
	.st0{fill:#4C00FF;}
</style>
<path class="st0" d="M372.3,38.9h8.2c1.2-0.2,2.4,0.7,2.5,1.9c0,0.2,0,0.4,0,0.6c-19.8,39.7-32.5,63.5-38,71.5
	c-14.8,0.4-50,14.6-105.7,42.4c-75.1,45.1-127.6,109.9-157.5,194.3c-9.5,31.4-14.5,64-14.6,96.8c0,90.7,40.1,182,120.2,274
	c-1.3,5.1-12,24.9-32.3,59.5h-1.3c-38.4-33.3-65.2-63.1-80.4-89.2c-48.7-77.2-73.2-162.2-73.2-255c0-156.5,87.1-278,261.4-364.5
	C310.9,49.7,347.8,38.9,372.3,38.9z M668-0.1v3.9C548.9,192.4,484.3,295.3,474.6,312.9h179.7c1.2-0.5,2.7,1.6,2.7,1.6s0,0.3,0,0.5
	c-3.8,2.5-181.5,199.1-533,589.8v-2.5l233-447.4H204.4l-2.5-1.3C304.9,250.7,382.3,99.5,434.2-0.1H668z M631.8,102.9h3.8
	C772.5,186,841,295.9,841,432.6v13.3c0,81-22.4,154.6-67.1,220.8C684.6,805.5,569,874.9,427.3,874.9c-67.1,0-132.8-16-197.3-48.1
	v-1.4c29.1-30.8,44.5-46.2,46.2-46.2c51.9,16.5,97.6,24.7,137.2,24.7h21.5c93.2,0,174.3-34.6,243.5-103.8
	C737.5,633,767,558.6,767,476.7v-15.8c0-108.8-52.1-208.8-156.2-300c-4.9-2.5-9.2-5.9-12.7-10.1
	C618.9,121.8,630.1,105.8,631.8,102.9z"/>
</svg>
